Walking01.mot
version=1
nRows=12
nColumns=19
inDegrees=yes
endheader
time	ground_force1_vx	ground_force1_vy	ground_force1_vz	ground_force1_px	ground_force1_py	ground_force1_pz	ground_force2_vx	ground_force2_vy	ground_force2_vz	ground_force2_px	ground_force2_py	ground_force2_pz	ground_torque1_x	ground_torque1_y	ground_torque1_z	ground_torque2_x	ground_torque2_y	ground_torque2_z
      1.98500000	      9.48084031	    174.44705051	    -11.96858474	     -0.26894036	      0.00000000	      0.06218065	      0.00000000	      0.00000000	      0.00000000	      0.00000000	      0.00000000	      0.00000000	      0.00000000	     -1.15482821	      0.00000000	      0.00000000	      0.00000000	      0.00000000
      1.98600000	      9.62117770	    172.38598757	    -11.95959498	     -0.26888916	      0.00000000	      0.06225571	      0.00000000	      0.00000000	      0.00000000	      0.00000000	      0.00000000	      0.00000000	      0.00000000	     -1.13926955	      0.00000000	      0.00000000	      0.00000000	      0.00000000
      1.98700000	      9.75300278	    170.36947552	    -11.94750243	     -0.26883833	      0.00000000	      0.06232967	      0.00000000	      0.00000000	      0.00000000	      0.00000000	      0.00000000	      0.00000000	      0.00000000	     -1.12381431	      0.00000000	      0.00000000	      0.00000000	      0.00000000
      1.98800000	      9.87685081	    168.39741307	    -11.93236907	     -0.26878802	      0.00000000	      0.06240249	      0.00000000	      0.00000000	      0.00000000	      0.00000000	      0.00000000	      0.00000000	      0.00000000	     -1.10846548	      0.00000000	      0.00000000	      0.00000000	      0.00000000
      1.98900000	      9.99325144	    166.46981526	    -11.91425153	     -0.26873850	      0.00000000	      0.06247414	      0.00000000	      0.00000000	      0.00000000	      0.00000000	      0.00000000	      0.00000000	      0.00000000	     -1.09322598	      0.00000000	      0.00000000	      0.00000000	      0.00000000
      1.99000000	     10.10271643	    164.58678968	    -11.89321093	     -0.26869005	      0.00000000	      0.06254462	      0.00000000	      0.00000000	      0.00000000	      0.00000000	      0.00000000	      0.00000000	      0.00000000	     -1.07810095	      0.00000000	      0.00000000	      0.00000000	      0.00000000
      1.99100000	     10.20574087	    162.74851880	    -11.86932251	     -0.26864295	      0.00000000	      0.06261387	      0.00000000	      0.00000000	      0.00000000	      0.00000000	      0.00000000	      0.00000000	      0.00000000	     -1.06309977	      0.00000000	      0.00000000	      0.00000000	      0.00000000
      1.99200000	     10.30281163	    160.95519864	    -11.84269143	     -0.26859748	      0.00000000	      0.06268183	      0.00000000	      0.00000000	      0.00000000	      0.00000000	      0.00000000	      0.00000000	      0.00000000	     -1.04823653	      0.00000000	      0.00000000	      0.00000000	      0.00000000
      1.99300000	     10.39440180	    159.20692029	    -11.81346303	     -0.26855381	      0.00000000	      0.06274842	      0.00000000	      0.00000000	      0.00000000	      0.00000000	      0.00000000	      0.00000000	      0.00000000	     -1.03352957	      0.00000000	      0.00000000	      0.00000000	      0.00000000
      1.99400000	     10.48096225	    157.50359919	    -11.78182639	     -0.26851194	      0.00000000	      0.06281363	      0.00000000	      0.00000000	      0.00000000	      0.00000000	      0.00000000	      0.00000000	      0.00000000	     -1.01900218	      0.00000000	      0.00000000	      0.00000000	      0.00000000
      1.99500000	     10.56292609	    155.84504505	    -11.74801139	     -0.26847169	      0.00000000	      0.06287740	      0.00000000	      0.00000000	      0.00000000	      0.00000000	      0.00000000	      0.00000000	      0.00000000	     -1.00468182	      0.00000000	      0.00000000	      0.00000000	      0.00000000
      1.99600000	     10.64072625	    154.23108852	    -11.71226781	     -0.26843277	      0.00000000	      0.06293957	      0.00000000	      0.00000000	      0.00000000	      0.00000000	      0.00000000	      0.00000000	      0.00000000	     -0.99059604	      0.00000000	      0.00000000	      0.00000000	      0.00000000
